<svg width="21" height="15" viewBox="0 0 21 15" xmlns="http://www.w3.org/2000/svg">
    <g fill="#FFF" fill-rule="nonzero" stroke="#FFF" stroke-width=".5">
        <path d="M19.451 12.556H3.743c-.721 0-1.442-.021-2.164 0h-.03c-.288 0-.562.33-.549.717.014.388.242.717.549.717H17.257c.721 0 1.442.022 2.164 0h.03c.288 0 .562-.33.549-.717-.014-.387-.242-.717-.549-.717zM19.451 1H12.032c-.288 0-.562.334-.549.727.014.392.242.726.549.726H19.45c.288 0 .562-.334.549-.726-.014-.393-.242-.727-.549-.727zM19.451 6.796H7.748c-.54 0-1.081-.018-1.619 0h-.022c-.287 0-.562.33-.548.718.014.388.241.72.548.72h11.704c.54 0 1.08.017 1.618 0h.022c.288 0 .562-.332.549-.72-.014-.391-.242-.718-.549-.718z"/>
    </g>
</svg>
