<svg width="74" height="37" viewBox="0 0 74 37" xmlns="http://www.w3.org/2000/svg">
    <path d="M37 0C16.566 0 0 8.283 0 18.5S16.566 37 37 37s37-8.283 37-18.5S57.434 0 37 0zm0 34.08c-18.821 0-34.08-6.976-34.08-15.58S18.18 2.92 37 2.92c18.821 0 34.08 6.976 34.08 15.58S55.82 34.08 37 34.08zm-4.666-18.826v-2.92h10.438v2.92h-3.758v9.413h-2.922v-9.413h-3.758zm23.038-2.92v12.333H52.45l-5.297-7.342v7.342h-2.921V12.333h2.92l5.298 7.342v-7.342h2.92zm-36.83 12.333V12.333h2.92l3.245 4.992 3.245-4.992h2.92v12.334h-2.92V17.69l-2.215 3.405h-2.06l-2.215-3.405v6.976h-2.92z" fill="#000" fill-rule="nonzero"/>
</svg>
